<svg id="SvgjsSvg1001" width="288" height="288" xmlns="http://www.w3.org/2000/svg" version="1.1" xmlns:xlink="http://www.w3.org/1999/xlink" xmlns:svgjs="http://svgjs.com/svgjs"><defs id="SvgjsDefs1002"></defs><g id="SvgjsG1008"><svg xmlns="http://www.w3.org/2000/svg" viewBox="0 0 3259.843 1133.858" width="288" height="288"><polygon fill="#181818" points="955.158 567.919 954.512 568.564 954.512 567.919 955.158 567.919" class="svgShape color181818-0 selectable"></polygon><polygon fill="#181818" points="954.512 961.74 955.158 966.233 954.512 964.309 954.512 961.74" class="svgShape color181818-1 selectable"></polygon><polygon fill="#181818" points="954.512 964.309 955.158 966.233 954.512 965.17 954.512 964.309" class="svgShape color181818-2 selectable"></polygon><polygon fill="#181818" points="954.512 965.17 955.158 966.233 954.512 965.601 954.512 965.17" class="svgShape color181818-3 selectable"></polygon><polygon fill="#181818" points="955.158 567.919 954.512 567.919 954.512 567.273 955.158 567.919" class="svgShape color181818-4 selectable"></polygon><polygon fill="#181818" points="955.158 966.233 954.512 966.233 954.512 966.153 955.158 966.233" class="svgShape color181818-5 selectable"></polygon><polygon fill="#181818" points="955.158 966.233 954.512 966.153 954.512 966.018 955.158 966.233" class="svgShape color181818-6 selectable"></polygon><polygon fill="#181818" points="955.158 966.233 954.512 966.018 954.512 965.857 955.158 966.233" class="svgShape color181818-7 selectable"></polygon><polygon fill="#181818" points="955.158 966.233 954.512 965.857 954.512 965.601 955.158 966.233" class="svgShape color181818-8 selectable"></polygon><polygon fill="#181818" points="954.512 966.153 954.512 966.233 555.525 966.233 605.573 916.346 954.512 966.153" class="svgShape color181818-9 selectable"></polygon><polygon fill="#303030" points="954.512 966.018 954.512 966.153 605.573 916.346 655.608 866.5 954.512 966.018" class="svgShape color303030-10 selectable"></polygon><polygon fill="#474747" points="954.512 965.857 954.512 966.018 655.608 866.5 705.535 816.721 954.512 965.857" class="svgShape color474747-11 selectable"></polygon><polygon fill="#5f5f5f" points="954.512 965.601 954.512 965.857 705.535 816.721 755.516 766.915 954.512 965.601" class="svgShape color5f5f5f-12 selectable"></polygon><polygon fill="#777777" points="954.512 965.17 954.512 965.601 755.516 766.915 805.161 717.431 954.512 965.17" class="svgShape color777777-13 selectable"></polygon><polygon fill="#8f8f8f" points="954.512 964.309 954.512 965.17 805.161 717.431 855.169 667.571 954.512 964.309" class="svgShape color8f8f8f-14 selectable"></polygon><polygon fill="#a7a7a7" points="954.512 961.74 954.512 964.309 855.169 667.571 905.298 617.617 954.512 961.74" class="svgShape colora7a7a7-15 selectable"></polygon><polygon fill="#bebebe" points="954.512 568.564 954.512 961.74 905.298 617.617 954.512 568.564" class="svgShape colorbebebe-16 selectable"></polygon><polygon fill="#e4e4e4" points="954.512 567.919 954.512 568.564 905.298 617.617 898.181 567.865 954.512 567.919" class="svgShape colore4e4e4-17 selectable"></polygon><polygon fill="#d6d6d6" points="954.512 567.273 954.512 567.919 898.181 567.865 888.682 501.43 954.512 567.273" class="svgShape colord6d6d6-18 selectable"></polygon><polygon fill="#bebebe" points="954.512 167.626 954.512 567.273 888.682 501.43 855.142 266.983 954.512 167.626" class="svgShape colorbebebe-19 selectable"></polygon><polygon fill="#181818" points="954.512 167.626 855.142 266.983 621.22 233.967 555.525 168.259 555.525 167.936 954.512 167.626" class="svgShape color181818-20 selectable"></polygon><polygon fill="#e0e0e0" points="898.181 567.865 905.298 617.617 855.169 667.571 831.921 598.109 854.644 567.838 898.181 567.865" class="svgShape colore0e0e0-21 selectable"></polygon><polygon fill="#cbcaca" points="888.682 501.43 898.181 567.865 854.644 567.838 795.205 488.433 754.695 367.443 888.682 501.43" class="svgShape colorcbcaca-22 selectable"></polygon><polygon fill="#a7a7a7" points="855.142 266.983 888.682 501.43 754.695 367.443 855.142 266.983" class="svgShape colora7a7a7-23 selectable"></polygon><polygon fill="#dbdbdb" points="831.921 598.109 855.169 667.571 805.161 717.431 777.177 671.015 831.921 598.109" class="svgShape colordbdbdb-24 selectable"></polygon><polygon fill="#303030" points="855.142 266.983 754.695 367.443 621.22 233.967 855.142 266.983" class="svgShape color303030-25 selectable"></polygon><polygon fill="#c3c3c3" points="795.205 488.433 854.644 567.838 821.776 567.811 795.205 488.433" class="svgShape colorc3c3c3-26 selectable"></polygon><polygon fill="#d9d9d9" points="854.644 567.838 831.921 598.109 821.776 567.811 854.644 567.838" class="svgShape colord9d9d9-27 selectable"></polygon><polygon fill="#d2d1d1" points="821.776 567.811 831.921 598.109 777.177 671.015 736.748 603.962 754.776 567.919 754.695 567.757 821.776 567.811" class="svgShape colord2d1d1-28 selectable"></polygon><polygon fill="#b5b5b5" points="795.205 488.433 821.776 567.811 754.695 567.757 688.058 434.08 726.066 396.073 795.205 488.433" class="svgShape colorb5b5b5-29 selectable"></polygon><polygon fill="#d6d6d6" points="777.177 671.015 805.161 717.431 755.516 766.915 726.738 738.191 777.177 671.015" class="svgShape colord6d6d6-30 selectable"></polygon><polygon fill="#bfbebe" points="754.695 367.443 795.205 488.433 726.066 396.073 754.695 367.443" class="svgShape colorbfbebe-31 selectable"></polygon><polygon fill="#cacaca" points="736.748 603.962 777.177 671.015 726.738 738.191 688.637 700.143 736.748 603.962" class="svgShape colorcacaca-32 selectable"></polygon><polygon fill="#d1d1d1" points="755.516 766.915 705.535 816.721 679.502 801.114 726.738 738.191 755.516 766.915" class="svgShape colord1d1d1-33 selectable"></polygon><polygon fill="#c8c8c8" points="754.695 567.757 754.776 567.919 736.748 603.962 714.899 567.717 754.695 567.757" class="svgShape colorc8c8c8-34 selectable"></polygon><polygon fill="#9b9a9a" points="754.695 367.443 726.066 396.073 688.032 345.271 754.695 367.443" class="svgShape color9b9a9a-35 selectable"></polygon><polygon fill="#acabab" points="688.058 434.08 754.695 567.757 714.899 567.717 654.545 467.593 688.058 434.08" class="svgShape coloracabab-36 selectable"></polygon><polygon fill="#8f8f8f" points="754.695 367.443 688.032 345.271 602.761 231.357 621.22 233.967 754.695 367.443" class="svgShape color8f8f8f-37 selectable"></polygon><polygon fill="#bebebe" points="714.899 567.717 736.748 603.962 688.637 700.143 635.292 646.879 655.07 567.663 714.899 567.717" class="svgShape colorbebebe-38 selectable"></polygon><polygon fill="#c3c3c3" points="726.738 738.191 679.502 801.114 647.67 782.05 688.637 700.143 726.738 738.191" class="svgShape colorc3c3c3-39 selectable"></polygon><polygon fill="#8a8a8a" points="688.032 345.271 726.066 396.073 688.058 434.08 634.97 327.619 688.032 345.271" class="svgShape color8a8a8a-40 selectable"></polygon><polygon fill="#9b9b9b" points="654.545 467.593 714.899 567.717 655.07 567.663 634.996 487.128 654.545 467.593" class="svgShape color9b9b9b-41 selectable"></polygon><polygon fill="#cdcdcd" points="705.535 816.721 655.608 866.5 635.454 859.786 679.502 801.114 705.535 816.721" class="svgShape colorcdcdcd-42 selectable"></polygon><polygon fill="#b5b5b5" points="688.637 700.143 647.67 782.05 607.537 758.008 635.292 646.879 688.637 700.143" class="svgShape colorb5b5b5-43 selectable"></polygon><polygon fill="#797979" points="634.97 327.619 688.058 434.08 654.545 467.593 625.834 450.372 591.648 313.21 634.97 327.619" class="svgShape color797979-44 selectable"></polygon><polygon fill="#7c7c7c" points="602.761 231.357 688.032 345.271 634.97 327.619 585.782 228.962 602.761 231.357" class="svgShape color7c7c7c-45 selectable"></polygon><polygon fill="#bcbcbc" points="679.502 801.114 635.454 859.786 612.582 852.172 647.67 782.05 679.502 801.114" class="svgShape colorbcbcbc-46 selectable"></polygon><polygon fill="#c8c8c8" points="655.608 866.5 605.573 916.346 594.204 914.732 635.454 859.786 655.608 866.5" class="svgShape colorc8c8c8-47 selectable"></polygon><polygon fill="#8f8f8f" points="634.996 487.128 655.07 567.663 555.861 567.582 555.525 567.246 555.525 566.614 634.996 487.128" class="svgShape color8f8f8f-48 selectable"></polygon><polygon fill="#838383" points="655.07 567.663 635.292 646.879 555.861 567.582 655.07 567.663" class="svgShape color838383-49 selectable"></polygon><polygon fill="#8a8a8a" points="654.545 467.593 634.996 487.128 625.834 450.372 654.545 467.593" class="svgShape color8a8a8a-50 selectable"></polygon><polygon fill="#ababab" points="647.67 782.05 612.582 852.172 586.213 843.386 607.537 758.008 647.67 782.05" class="svgShape colorababab-51 selectable"></polygon><polygon fill="#b5b5b5" points="635.454 859.786 594.204 914.732 582.15 913.01 612.582 852.172 635.454 859.786" class="svgShape colorb5b5b5-52 selectable"></polygon><polygon fill="#6d6d6d" points="635.292 646.879 607.537 758.008 555.525 726.862 555.525 567.582 555.861 567.582 635.292 646.879" class="svgShape color6d6d6d-53 selectable"></polygon><polygon fill="#7c7c7c" points="625.834 450.372 634.996 487.128 555.525 566.614 555.525 408.154 625.834 450.372" class="svgShape color7c7c7c-54 selectable"></polygon><polygon fill="#696969" points="585.782 228.962 634.97 327.619 591.648 313.21 570.109 226.742 585.782 228.962" class="svgShape color696969-55 selectable"></polygon><polygon fill="#686868" points="591.648 313.21 625.834 450.372 555.525 408.154 555.525 301.196 591.648 313.21" class="svgShape color686868-56 selectable"></polygon><polygon fill="#838383" points="555.525 168.259 621.22 233.967 602.761 231.357 555.525 168.259" class="svgShape color838383-57 selectable"></polygon><polygon fill="#a2a2a2" points="612.582 852.172 582.15 913.01 569.288 911.167 586.213 843.386 612.582 852.172" class="svgShape colora2a2a2-58 selectable"></polygon><polygon fill="#585858" points="607.537 758.008 586.213 843.386 555.525 833.175 555.525 726.862 607.537 758.008" class="svgShape color585858-59 selectable"></polygon><polygon fill="#c3c3c3" points="605.573 916.346 555.525 966.233 594.204 914.732 605.573 916.346" class="svgShape colorc3c3c3-60 selectable"></polygon><polygon fill="#6e6e6e" points="555.525 168.259 602.761 231.357 585.782 228.962 555.525 168.259" class="svgShape color6e6e6e-61 selectable"></polygon><polygon fill="#aeaeae" points="594.204 914.732 555.525 966.233 582.15 913.01 594.204 914.732" class="svgShape coloraeaeae-62 selectable"></polygon><polygon fill="#565656" points="570.109 226.742 591.648 313.21 555.525 301.196 555.525 224.684 570.109 226.742" class="svgShape color565656-63 selectable"></polygon><polygon fill="#434343" points="586.213 843.386 569.288 911.167 555.525 909.202 555.525 833.175 586.213 843.386" class="svgShape color434343-64 selectable"></polygon><polygon fill="#585858" points="555.525 168.259 585.782 228.962 570.109 226.742 555.525 168.259" class="svgShape color585858-65 selectable"></polygon><polygon fill="#989898" points="582.15 913.01 555.525 966.233 569.288 911.167 582.15 913.01" class="svgShape color989898-66 selectable"></polygon><polygon fill="#434343" points="555.525 168.259 570.109 226.742 555.525 224.684 555.525 168.259" class="svgShape color434343-67 selectable"></polygon><polygon fill="#2d2d2d" points="569.288 911.167 555.525 966.233 555.525 909.202 569.288 911.167" class="svgShape color2d2d2d-68 selectable"></polygon><polygon fill="#181818" points="555.861 567.582 555.525 567.582 555.525 567.246 555.861 567.582" class="svgShape color181818-69 selectable"></polygon><polygon fill="#434343" points="555.525 909.202 555.525 966.233 540.739 907.104 555.525 909.202" class="svgShape color434343-70 selectable"></polygon><polygon fill="#565656" points="555.525 833.175 555.525 909.202 540.739 907.104 519.213 821.08 555.525 833.175" class="svgShape color565656-71 selectable"></polygon><polygon fill="#686868" points="555.525 726.862 555.525 833.175 519.213 821.08 485.094 684.671 555.525 726.862" class="svgShape color686868-72 selectable"></polygon><polygon fill="#7c7c7c" points="555.525 567.582 555.525 726.862 485.094 684.671 475.568 646.57 554.556 567.582 555.525 567.582" class="svgShape color7c7c7c-73 selectable"></polygon><polygon fill="#181818" points="555.525 567.246 555.525 567.582 554.556 567.582 555.202 566.923 555.525 567.246" class="svgShape color181818-74 selectable"></polygon><polygon fill="#181818" points="555.525 566.614 555.525 567.246 555.202 566.923 555.525 566.614" class="svgShape color181818-75 selectable"></polygon><polygon fill="#6d6d6d" points="555.525 408.154 555.525 566.614 555.202 566.923 475.743 487.599 503.404 376.874 555.525 408.154" class="svgShape color6d6d6d-76 selectable"></polygon><polygon fill="#585858" points="555.525 301.196 555.525 408.154 503.404 376.874 524.863 290.998 555.525 301.196" class="svgShape color585858-77 selectable"></polygon><polygon fill="#434343" points="555.525 224.684 555.525 301.196 524.863 290.998 541.909 222.76 555.525 224.684" class="svgShape color434343-78 selectable"></polygon><polygon fill="#2d2d2d" points="555.525 168.259 555.525 224.684 541.909 222.76 555.525 168.259" class="svgShape color2d2d2d-79 selectable"></polygon><polygon fill="#181818" points="555.525 167.936 555.525 168.259 506.014 217.701 155.891 168.259 555.525 167.936" class="svgShape color181818-80 selectable"></polygon><polygon fill="#989898" points="555.525 168.259 541.909 222.76 529.142 220.957 555.525 168.259" class="svgShape color989898-81 selectable"></polygon><polygon fill="#aeaeae" points="555.525 168.259 529.142 220.957 517.289 219.289 555.525 168.259" class="svgShape coloraeaeae-82 selectable"></polygon><polygon fill="#c3c3c3" points="555.525 168.259 517.289 219.289 506.014 217.701 555.525 168.259" class="svgShape colorc3c3c3-83 selectable"></polygon><polygon fill="#585858" points="540.739 907.104 555.525 966.233 524.742 904.817 540.739 907.104" class="svgShape color585858-84 selectable"></polygon><polygon fill="#6e6e6e" points="524.742 904.817 555.525 966.233 507.656 902.381 524.742 904.817" class="svgShape color6e6e6e-85 selectable"></polygon><polygon fill="#838383" points="507.656 902.381 555.525 966.233 488.874 899.704 507.656 902.381" class="svgShape color838383-86 selectable"></polygon><polygon fill="#181818" points="555.525 966.233 155.891 966.233 255.706 866.419 488.874 899.704 555.525 966.233" class="svgShape color181818-87 selectable"></polygon><polygon fill="#838383" points="555.202 566.923 554.556 567.582 455.778 567.502 475.743 487.599 555.202 566.923" class="svgShape color838383-88 selectable"></polygon><polygon fill="#8f8f8f" points="554.556 567.582 475.568 646.57 455.778 567.502 554.556 567.582" class="svgShape color8f8f8f-89 selectable"></polygon><polygon fill="#a2a2a2" points="541.909 222.76 524.863 290.998 498.467 282.213 529.142 220.957 541.909 222.76" class="svgShape colora2a2a2-90 selectable"></polygon><polygon fill="#696969" points="519.213 821.08 540.739 907.104 524.742 904.817 475.488 806.523 519.213 821.08" class="svgShape color696969-91 selectable"></polygon><polygon fill="#b5b5b5" points="529.142 220.957 498.467 282.213 475.797 274.665 517.289 219.289 529.142 220.957" class="svgShape colorb5b5b5-92 selectable"></polygon><polygon fill="#ababab" points="524.863 290.998 503.404 376.874 463.164 352.711 498.467 282.213 524.863 290.998" class="svgShape colorababab-93 selectable"></polygon><polygon fill="#7c7c7c" points="475.488 806.523 524.742 904.817 507.656 902.381 422.601 788.912 475.488 806.523" class="svgShape color7c7c7c-94 selectable"></polygon><polygon fill="#797979" points="485.094 684.671 519.213 821.08 475.488 806.523 422.116 700.022 455.307 666.831 485.094 684.671" class="svgShape color797979-95 selectable"></polygon><polygon fill="#c8c8c8" points="517.289 219.289 475.797 274.665 455.657 267.978 506.014 217.701 517.289 219.289" class="svgShape colorc8c8c8-96 selectable"></polygon><polygon fill="#8f8f8f" points="422.601 788.912 507.656 902.381 488.874 899.704 355.547 766.578 422.601 788.912" class="svgShape color8f8f8f-97 selectable"></polygon><polygon fill="#303030" points="506.014 217.701 455.657 267.978 155.891 168.259 506.014 217.701" class="svgShape color303030-98 selectable"></polygon><polygon fill="#b5b5b5" points="503.404 376.874 475.743 487.599 422.331 434.268 463.164 352.711 503.404 376.874" class="svgShape colorb5b5b5-99 selectable"></polygon><polygon fill="#bcbcbc" points="498.467 282.213 463.164 352.711 431.547 333.727 475.797 274.665 498.467 282.213" class="svgShape colorbcbcbc-100 selectable"></polygon><polygon fill="#303030" points="488.874 899.704 255.706 866.419 355.547 766.578 488.874 899.704" class="svgShape color303030-101 selectable"></polygon><polygon fill="#8a8a8a" points="475.568 646.57 485.094 684.671 455.307 666.831 475.568 646.57" class="svgShape color8a8a8a-102 selectable"></polygon><polygon fill="#cdcdcd" points="475.797 274.665 431.547 333.727 405.474 318.081 455.657 267.978 475.797 274.665" class="svgShape colorcdcdcd-103 selectable"></polygon><polygon fill="#bebebe" points="475.743 487.599 455.778 567.502 395.626 567.448 373.83 531.149 422.331 434.268 475.743 487.599" class="svgShape colorbebebe-104 selectable"></polygon><polygon fill="#9b9b9b" points="455.778 567.502 475.568 646.57 455.307 666.831 395.626 567.448 455.778 567.502" class="svgShape color9b9b9b-105 selectable"></polygon><polygon fill="#8a8a8a" points="422.116 700.022 475.488 806.523 422.601 788.912 384.311 737.827 422.116 700.022" class="svgShape color8a8a8a-106 selectable"></polygon><polygon fill="#c3c3c3" points="463.164 352.711 422.331 434.268 384.513 396.503 431.547 333.727 463.164 352.711" class="svgShape colorc3c3c3-107 selectable"></polygon><polygon fill="#474747" points="455.657 267.978 405.474 318.081 155.891 168.259 455.657 267.978" class="svgShape color474747-108 selectable"></polygon><polygon fill="#acabab" points="395.626 567.448 455.307 666.831 422.116 700.022 355.668 567.421 395.626 567.448" class="svgShape coloracabab-109 selectable"></polygon><polygon fill="#d1d1d1" points="431.547 333.727 384.513 396.503 355.708 367.752 405.474 318.081 431.547 333.727" class="svgShape colord1d1d1-110 selectable"></polygon><polygon fill="#9b9a9a" points="384.311 737.827 422.601 788.912 355.547 766.578 384.311 737.827" class="svgShape color9b9a9a-111 selectable"></polygon><polygon fill="#cacaca" points="422.331 434.268 373.83 531.149 333.698 464.324 384.513 396.503 422.331 434.268" class="svgShape colorcacaca-112 selectable"></polygon><polygon fill="#b5b5b5" points="355.668 567.421 422.116 700.022 384.311 737.827 315.185 645.615 289.071 567.367 355.668 567.421" class="svgShape colorb5b5b5-113 selectable"></polygon><polygon fill="#5f5f5f" points="405.474 318.081 355.708 367.752 155.891 168.259 405.474 318.081" class="svgShape color5f5f5f-114 selectable"></polygon><polygon fill="#c8c8c8" points="373.83 531.149 395.626 567.448 355.668 567.421 373.83 531.149" class="svgShape colorc8c8c8-115 selectable"></polygon><polygon fill="#d6d6d6" points="384.513 396.503 333.698 464.324 305.687 417.693 355.708 367.752 384.513 396.503" class="svgShape colord6d6d6-116 selectable"></polygon><polygon fill="#bfbebe" points="315.185 645.615 384.311 737.827 355.547 766.578 315.185 645.615" class="svgShape colorbfbebe-117 selectable"></polygon><polygon fill="#d2d1d1" points="333.698 464.324 373.83 531.149 355.668 567.421 289.071 567.367 279.035 537.271 333.698 464.324" class="svgShape colord2d1d1-118 selectable"></polygon><polygon fill="#777777" points="355.708 367.752 305.687 417.693 155.891 168.259 355.708 367.752" class="svgShape color777777-119 selectable"></polygon><polygon fill="#cbcaca" points="315.185 645.615 355.547 766.578 222.434 633.681 212.949 567.3 256.499 567.34 315.185 645.615" class="svgShape colorcbcaca-120 selectable"></polygon><polygon fill="#a7a7a7" points="355.547 766.578 255.706 866.419 222.434 633.681 355.547 766.578" class="svgShape colora7a7a7-121 selectable"></polygon><polygon fill="#dbdbdb" points="305.687 417.693 333.698 464.324 279.035 537.271 255.759 467.539 305.687 417.693" class="svgShape colordbdbdb-122 selectable"></polygon><polygon fill="#c3c3c3" points="289.071 567.367 315.185 645.615 256.499 567.34 289.071 567.367" class="svgShape colorc3c3c3-123 selectable"></polygon><polygon fill="#8f8f8f" points="155.891 168.259 305.687 417.693 255.759 467.539 155.891 168.259" class="svgShape color8f8f8f-124 selectable"></polygon><polygon fill="#d9d9d9" points="279.035 537.271 289.071 567.367 256.499 567.34 279.035 537.271" class="svgShape colord9d9d9-125 selectable"></polygon><polygon fill="#e0e0e0" points="255.759 467.539 279.035 537.271 256.499 567.34 212.949 567.3 205.819 517.413 255.759 467.539" class="svgShape colore0e0e0-126 selectable"></polygon><polygon fill="#a7a7a7" points="155.891 168.259 255.759 467.539 205.819 517.413 155.891 168.259" class="svgShape colora7a7a7-127 selectable"></polygon><polygon fill="#bebebe" points="222.434 633.681 255.706 866.419 155.891 966.233 155.891 567.246 222.434 633.681" class="svgShape colorbebebe-128 selectable"></polygon><polygon fill="#d6d6d6" points="212.949 567.3 222.434 633.681 155.891 567.246 212.949 567.3" class="svgShape colord6d6d6-129 selectable"></polygon><polygon fill="#e4e4e4" points="205.819 517.413 212.949 567.3 155.891 567.246 205.819 517.413" class="svgShape colore4e4e4-130 selectable"></polygon><polygon fill="#bebebe" points="155.891 168.259 205.819 517.413 155.891 567.246 155.891 168.259" class="svgShape colorbebebe-131 selectable"></polygon><path d="M1129.11273 245.43079h-41.30078v-51.45117h151.90234v51.45117h-40.9502v232.05371h-69.65137v-232.05371zM1250.91253 417.28333v-81.90137c0-40.60059 30.45117-64.05078 73.15137-64.05078 43.05078 0 70.35156 20.65039 70.35156 61.60059v47.60059h-81.55176v38.50098c0 13.30078 5.25 17.85059 11.2002 17.85059s12.9502-2.4502 12.9502-15.75v-24.15039h57.40137v23.4502c0 40.9502-28 60.90039-70.35156 60.90039-42.7002 0-73.15137-23.4502-73.15137-64.05078zM1337.01409 352.18275v-20.65039c0-13.65039-7-15.75098-12.9502-15.75098-5.59961 0-11.2002 3.85059-11.2002 17.50098v18.90039h24.15039zM1420.31097 417.28333v-82.25098c0-40.60059 30.45117-63.70117 73.15137-63.70117s72.10156 19.59961 72.10156 60.20117v24.15039h-61.25098v-26.25098c0-13.2998-4.90039-15.75-10.85059-15.75-5.59961 0-10.14941 4.2002-10.14941 17.5v89.95215c0 13.2998 4.5498 17.5 10.14941 17.5 5.9502 0 10.85059-2.4502 10.85059-15.75v-29.75098h61.25098v27.65039c0 40.60059-29.75 60.55078-72.10156 60.55078-42.7002 0-73.15137-23.4502-73.15137-64.05078zM1594.25531 193.97962h62.65137v98.35156c15.40039-15.75 31.50098-21 49.00098-21 24.5 0 39.2002 19.9502 39.2002 49.00098v157.15234h-62.30078v-149.80273c0-8.40039-2.4502-12.59961-10.15039-12.59961-3.84961 0-9.4502 1.75-15.75 5.59961v156.80273h-62.65137V193.97962zM1777.30609 420.08314h58.80176v57.40137h-58.80176v-57.40137zM1099.36175 809.98255l58.80176-7.69922c.34961 38.5 9.09961 47.25 20.2998 47.25 10.85059 0 11.55078-10.5 11.55078-16.7998 0-23.10059-11.55078-37.10059-31.50098-53.90137l-17.85059-15.0498c-22.40039-18.90039-41.30078-41.30078-41.30078-77.35156 0-49.70117 32.20117-76.65137 83.30176-76.65137 65.10156 0 70.00098 54.25098 70.35156 82.60156l-60.20117 5.9502c0-24.50098-.34961-38.50098-12.60059-38.50098-9.4502 0-12.9502 12.9502-12.9502 19.60059 0 22.0498 12.60059 33.60059 30.10059 49.00098l16.4502 14.34961c25.20117 21.70117 44.80078 46.55078 44.80078 86.80176 0 39.55078-29.0498 72.45117-75.95117 72.45117-54.95117 0-81.55078-24.85059-83.30176-92.05176zM1283.80706 852.33412v-157.15332h62.65137v151.90332c0 8.39941 3.14941 12.9502 10.5 12.9502 3.84961 0 8.40039-1.75098 14-4.55078v-160.30273h62.65137v202.30371h-62.65137v-18.2002c-15.0498 14-30.80078 22.0498-47.60059 22.0498-24.85059 0-39.55078-19.9502-39.55078-49zM1468.60296 695.18079h62.30176v15.40039c15.0498-14.35059 31.15039-19.25 47.9502-19.25 16.4502 0 28.70117 8.75 35.00098 23.4502 16.4502-17.85059 34.30078-23.4502 52.15039-23.4502 24.85059 0 39.90137 19.59961 39.90137 49.35059v156.80273h-62.30176v-149.80273c0-8.75-2.7998-12.9502-10.14941-12.9502-3.5 0-9.80078 1.75-15.05078 4.5498v158.20312h-61.60059v-149.80273c0-8.75-3.5-12.9502-10.85059-12.9502-3.5 0-9.4502 1.75-15.0498 4.90039v157.85254h-62.30176v-202.30371zM1739.49847 695.18079h62.30176v15.40039c15.0498-14.35059 31.15039-19.25 47.9502-19.25 16.4502 0 28.70117 8.75 35.00098 23.4502 16.4502-17.85059 34.30078-23.4502 52.15039-23.4502 24.85059 0 39.90137 19.59961 39.90137 49.35059v156.80273h-62.30176v-149.80273c0-8.75-2.7998-12.9502-10.14941-12.9502-3.5 0-9.80078 1.75-15.05078 4.5498v158.20312h-61.60059v-149.80273c0-8.75-3.5-12.9502-10.85059-12.9502-3.5 0-9.4502 1.75-15.0498 4.90039v157.85254h-62.30176v-202.30371zM2006.19378 837.28333v-81.90137c0-40.60059 30.45117-64.05078 73.15137-64.05078 43.05078 0 70.35156 20.65039 70.35156 61.60059v47.60059h-81.55176v38.50098c0 13.30078 5.25 17.85059 11.2002 17.85059s12.9502-2.4502 12.9502-15.75v-24.15039h57.40137v23.4502c0 40.9502-28 60.90039-70.35156 60.90039-42.7002 0-73.15137-23.4502-73.15137-64.05078zM2092.29534 772.18275v-20.65039c0-13.65039-7-15.75098-12.9502-15.75098-5.59961 0-11.2002 3.85059-11.2002 17.50098v18.90039h24.15039zM2180.49163 695.18079h62.65137v35.00098c12.25-22.75098 23.10059-37.45117 43.05078-37.45117 3.84961 0 7 .35059 9.4502 1.05078v61.60059c-5.25-2.4502-10.85059-4.2002-17.85059-4.2002-14 0-25.55078 8.40039-34.65039 19.60059v126.70215h-62.65137v-202.30371zM2319.78656 807.18275v-102.55176c0-59.15039 21.7002-94.85156 87.50098-94.85156s84.70215 34.65039 84.70215 81.90137v25.2002h-68.25098v-30.7998c0-12.25098-.35059-28.35059-16.45117-28.35059-16.09961 0-17.14941 16.09961-17.14941 28.35059v139.30176c0 12.60059 1.39941 28.35059 17.14941 28.35059 16.10059 0 16.45117-16.09961 16.45117-28.35059v-32.2002h68.25098v25.2002c0 47.25098-18.90039 83.65137-84.70215 83.65137s-87.50098-36.05078-87.50098-94.85156zM2516.4848 851.28333c0-50.40039 47.9502-66.50098 84.35156-78.75098v-22.05078c0-6.2998-2.10059-12.59961-9.4502-12.59961-8.05078 0-9.4502 5.9502-10.15039 12.59961l-1.75 16.10059-57.75098-2.4502c2.4502-49.7002 26.60059-72.80078 75.60156-72.80078 41.30078 0 63.00098 26.25 63.00098 60.20117v94.85156c0 27.2998 2.09961 42.35059 3.5 51.10059h-55.65137c-1.75-11.90039-4.2002-28-4.5498-28.35059-4.90039 17.15039-17.5 32.2002-38.15039 32.2002-32.90039 0-49.00098-26.59961-49.00098-50.05078zM2600.83636 852.68372v-54.95117c-17.50098 10.15039-28.70117 22.75098-28.70117 42.35059 0 12.9502 5.60059 20.65039 15.05078 20.65039 5.9502 0 9.7998-2.7998 13.65039-8.0498zM2693.93402 695.18079h62.30176v15.40039c15.0498-14.35059 31.15039-19.25 47.9502-19.25 16.4502 0 28.70117 8.75 35.00098 23.4502 16.4502-17.85059 34.30078-23.4502 52.15039-23.4502 24.85059 0 39.90137 19.59961 39.90137 49.35059v156.80273h-62.30176v-149.80273c0-8.75-2.7998-12.9502-10.14941-12.9502-3.5 0-9.80078 1.75-15.05078 4.5498v158.20312h-61.60059v-149.80273c0-8.75-3.5-12.9502-10.85059-12.9502-3.5 0-9.4502 1.75-15.0498 4.90039v157.85254h-62.30176v-202.30371zM2964.82952 695.18079h62.65137v14.35059c15.40039-12.9502 32.2002-18.2002 45.50098-18.2002 27.30078.34961 42.35059 19.59961 42.35059 54.9502v98.35254c0 36.0498-16.7998 56.7002-42.35059 56.7002-14.7002 0-30.80078-7-45.50098-19.25v81.90137h-62.65137v-268.80469zM3052.68109 848.48353v-107.80176c0-7.7002-4.5498-13.65039-11.90039-13.65039-4.5498 0-9.09961 2.4502-13.2998 5.9502v125.30176c4.2002 2.4502 8.40039 3.85059 11.90039 3.85059 8.0498 0 13.2998-5.9502 13.2998-13.65039z" fill="#ffffff" class="svgShape color000000-132 selectable"></path></svg></g></svg>